:SAMPLES-PER-SECOND 30
:FULLY-SPECIFIED
:DEGREES
275
root  1.51404 27.8274 -40.5478 -164.632 1.81448 177.805
RightUpLeg  -41.1794 -2.78837 -2.10849
RightLeg  86.696 16.5509 -22.7545
RightFoot  -46.0034 6.58693 21.6014
RightToes  -1.16415e-010 -3.18055e-015 -2.98177e-016
Spine  39.7669 -1.45967 5.06144
Spine1  -1.61467 0.857421 -14.9396
HEad  -20.6446 -9.08305 3.13288
LeftShoulder1  -3.88251e-019 9.70628e-020 -3.87848e-018
LeftArm  -33.0887 48.1275 -51.2178
LeftForeArm  -4.63432 -32.1748 6.81941
LeftHand  -7.17884 -11.5252 47.781
RightShoulder  3.9121 8.42635 19.4616
RightArm  -4.85705 -31.6635 29.9182
RightForeArm  6.39851 40.1156 -23.2627
RightHand  -2.73323 4.90385 -29.9136
LeftUpLeg  -77.8163 1.18372 -9.50166
LeftLeg  82.1929 -12.8056 9.62053
LeftFoot  -20.7881 0.111596 2.49297
LeftToes  1.69338e-011 3.79281e-011 -2.20049e-011
276
root  1.45593 28.2461 -40.9285 -163.833 1.66994 178.05
RightUpLeg  -40.34 -2.93322 -2.00738
RightLeg  84.7164 15.7465 -22.0044
RightFoot  -45.5494 6.47619 21.5514
RightToes  -1.16415e-010 -3.18055e-015 -2.98177e-016
Spine  39.5859 -1.35242 4.72675
Spine1  -1.61665 0.832776 -14.9261
HEad  -20.8439 -8.85987 3.60193
LeftShoulder1  -3.88251e-019 9.70628e-020 -3.87848e-018
LeftArm  -32.7313 47.5176 -50.6381
LeftForeArm  -3.14812 -35.4526 7.85989
LeftHand  -7.4724 -11.9224 48.4746
RightShoulder  3.96707 8.48643 19.698
RightArm  -3.18595 -32.1778 29.6402
RightForeArm  6.98857 40.088 -23.2698
RightHand  -2.31789 4.40623 -26.7845
LeftUpLeg  -76.9415 1.20907 -9.46466
LeftLeg  80.9512 -12.6274 9.46564
LeftFoot  -21.1642 0.144907 2.86378
LeftToes  1.69338e-011 3.79281e-011 -2.20049e-011
277
root  1.38783 28.7069 -41.3287 -163.236 1.74641 178.374
RightUpLeg  -39.1617 -2.88854 -1.98282
RightLeg  82.5594 14.931 -20.7158
RightFoot  -44.919 6.47393 21.9928
RightToes  -1.16415e-010 -3.18055e-015 -2.98177e-016
Spine  39.5569 -1.25392 4.50635
Spine1  -1.68149 0.873896 -15.0671
HEad  -20.9341 -8.70997 4.08399
LeftShoulder1  -3.88251e-019 9.70628e-020 -3.87848e-018
LeftArm  -32.3388 47.004 -49.9224
LeftForeArm  -1.61393 -39.0643 9.11113
LeftHand  -7.4088 -11.7508 48.5436
RightShoulder  4.00613 8.5228 19.8761
RightArm  -1.6799 -32.9632 29.3327
RightForeArm  6.95649 40.2492 -23.3959
RightHand  -1.9885 3.97709 -24.1338
LeftUpLeg  -75.6733 1.32171 -9.26784
LeftLeg  79.5386 -12.4166 9.42674
LeftFoot  -21.5342 0.16404 3.01062
LeftToes  1.69338e-011 3.79281e-011 -2.20049e-011
278
root  1.31163 29.166 -41.7482 -162.606 1.92247 178.868
RightUpLeg  -38.0317 -2.96669 -1.77521
RightLeg  80.3241 14.1909 -19.576
RightFoot  -43.9361 6.31594 22.1701
RightToes  -1.16415e-010 -3.18055e-015 -2.98177e-016
Spine  39.3661 -1.11157 4.4016
Spine1  -1.80084 0.922334 -15.0239
HEad  -20.9059 -8.55661 4.43226
LeftShoulder1  -3.88251e-019 9.70628e-020 -3.87848e-018
LeftArm  -32.0371 46.5543 -49.2665
LeftForeArm  -0.531458 -42.7685 10.5263
LeftHand  -7.16049 -11.2758 48.3211
RightShoulder  4.03052 8.54489 19.9878
RightArm  -0.161659 -33.9209 28.9472
RightForeArm  6.12065 40.5904 -23.6271
RightHand  -1.8454 3.73611 -23.0057
LeftUpLeg  -74.41 1.54476 -8.89525
LeftLeg  78.1498 -12.2034 9.43413
LeftFoot  -22.0514 0.178543 3.03808
LeftToes  1.69338e-011 3.79281e-011 -2.20049e-011
279
root  1.23417 29.6033 -42.1873 -161.87 1.91187 179.267
RightUpLeg  -37.0748 -3.44755 -1.56054
RightLeg  78.1703 13.5507 -18.6858
RightFoot  -42.9272 6.05971 22.0242
RightToes  -1.16415e-010 -3.18055e-015 -2.98177e-016
Spine  38.9467 -1.06082 4.254
Spine1  -1.90936 0.817342 -14.8226
HEad  -20.7423 -8.29913 4.67153
LeftShoulder1  -3.88251e-019 9.70628e-020 -3.87848e-018
LeftArm  -31.6421 45.9446 -48.5137
LeftForeArm  0.254418 -46.078 11.9507
LeftHand  -6.96415 -10.9138 48.0983
RightShoulder  4.07179 8.57321 20.1925
RightArm  1.54782 -34.8541 28.2729
RightForeArm  5.42141 41.1949 -24.0833
RightHand  -1.76546 3.66491 -22.1956
LeftUpLeg  -73.2853 1.56304 -8.59572
LeftLeg  76.7552 -11.9893 9.42849
LeftFoot  -22.5501 0.200479 3.15867
LeftToes  1.69338e-011 3.79281e-011 -2.20049e-011
280
root  1.16714 30.012 -42.6436 -161.072 1.79462 179.574
RightUpLeg  -36.2844 -3.93747 -1.38859
RightLeg  76.2302 13.0562 -17.692
RightFoot  -41.8165 5.92676 22.4126
RightToes  -1.16415e-010 -3.18055e-015 -2.98177e-016
Spine  38.4148 -1.06443 3.9952
Spine1  -2.07637 0.657468 -14.6371
HEad  -20.3811 -7.94815 4.90514
LeftShoulder1  -3.88251e-019 9.70628e-020 -3.87848e-018
LeftArm  -31.0276 45.1317 -47.5409
LeftForeArm  0.898185 -48.7001 13.2219
LeftHand  -6.8521 -10.7776 47.7762
RightShoulder  4.12502 8.60376 20.4662
RightArm  3.2512 -35.8263 27.3372
RightForeArm  5.508 42.0592 -24.8107
RightHand  -1.60751 3.62388 -20.3375
LeftUpLeg  -72.2764 1.42038 -8.32126
LeftLeg  75.3941 -11.7782 9.42687
LeftFoot  -22.9238 0.22266 3.30802
LeftToes  1.69338e-011 3.79281e-011 -2.20049e-011
281
root  1.10594 30.4164 -43.1172 -160.432 1.73239 -179.965
RightUpLeg  -35.3761 -4.24484 -1.07946
RightLeg  74.3758 12.6465 -16.7376
RightFoot  -40.1086 5.71714 23.0295
RightToes  -1.16415e-010 -3.18055e-015 -2.98177e-016
Spine  38.044 -1.01589 3.75447
Spine1  -2.51179 0.510983 -14.2745
HEad  -19.8669 -7.53944 5.15882
LeftShoulder1  -3.88251e-019 9.70628e-020 -3.87848e-018
LeftArm  -30.333 44.3181 -46.517
LeftForeArm  1.18107 -50.6972 14.2809
LeftHand  -6.82732 -10.8498 47.4302
RightShoulder  4.15895 8.62809 20.6311
RightArm  4.60362 -37.097 26.3816
RightForeArm  5.65828 43.1541 -25.7713
RightHand  -1.3928 3.48439 -17.9501
LeftUpLeg  -71.0796 1.37793 -7.84593
LeftLeg  74.0675 -11.5679 9.43867
LeftFoot  -23.3753 0.236195 3.32629
LeftToes  1.69338e-011 3.79281e-011 -2.20049e-011
282
root  1.03537 30.8424 -43.6245 -160.002 1.80853 -179.249
RightUpLeg  -34.2838 -4.50363 -0.553899
RightLeg  72.5108 12.2255 -16.1313
RightFoot  -37.8299 5.18712 22.8721
RightToes  -1.16415e-010 -3.18055e-015 -2.98177e-016
Spine  37.8188 -0.925569 3.70706
Spine1  -3.16426 0.384403 -13.7175
HEad  -19.3773 -7.0861 5.43094
LeftShoulder1  -3.88251e-019 9.70628e-020 -3.87848e-018
LeftArm  -29.6008 43.5299 -45.5535
LeftForeArm  1.13103 -52.1098 15.0786
LeftHand  -6.92504 -11.1081 47.3445
RightShoulder  4.18919 8.66963 20.7414
RightArm  5.64061 -38.6786 25.4344
RightForeArm  4.54149 44.4323 -26.8811
RightHand  -1.24309 3.18678 -16.6
LeftUpLeg  -69.5419 1.60869 -7.1628
LeftLeg  72.6989 -11.3565 9.41324
LeftFoot  -24.0678 0.244172 3.21787
LeftToes  1.69338e-011 3.79281e-011 -2.20049e-011
283
root  0.971042 31.2576 -44.1673 -159.484 1.92442 -178.525
RightUpLeg  -33.7061 -4.66983 -0.0403114
RightLeg  71.2956 12.0117 -15.556
RightFoot  -34.9996 4.61537 23.0788
RightToes  -1.16415e-010 -3.18055e-015 -2.98177e-016
Spine  37.4581 -0.869604 3.66535
Spine1  -3.80334 0.257207 -13.2513
HEad  -19.0198 -6.60542 5.73978
LeftShoulder1  -3.88251e-019 9.70628e-020 -3.87848e-018
LeftArm  -28.6828 42.546 -44.528
LeftForeArm  1.15424 -52.7781 15.4787
LeftHand  -7.05959 -11.3849 47.4353
RightShoulder  4.25395 8.74647 20.9977
RightArm  6.74523 -40.2691 24.3585
RightForeArm  1.75605 45.707 -27.9584
RightHand  -1.21711 2.8519 -16.8866
LeftUpLeg  -68.0481 1.86991 -6.47181
LeftLeg  71.3153 -11.14 9.391
LeftFoot  -24.8036 0.240403 2.99736
LeftToes  1.69338e-011 3.79281e-011 -2.20049e-011
284
root  0.935075 31.6214 -44.7082 -158.681 2.05702 -178.011
RightUpLeg  -34.7474 -4.54405 0.24815
RightLeg  71.8382 12.2448 -15.1839
RightFoot  -29.8438 3.82463 25.2781
RightToes  -1.16415e-010 -3.18055e-015 -2.98177e-016
Spine  36.903 -0.809693 3.26376
Spine1  -4.36417 0.126387 -12.9347
HEad  -18.7395 -6.11984 6.01191
LeftShoulder1  -3.88251e-019 9.70628e-020 -3.87848e-018
LeftArm  -27.6547 41.3317 -43.4302
LeftForeArm  1.38608 -52.6792 15.4328
LeftHand  -7.10363 -11.5136 47.3661
RightShoulder  4.32907 8.82234 21.3163
RightArm  8.12947 -41.7167 23.2424
RightForeArm  -1.91352 46.8259 -28.881
RightHand  -1.27068 2.66289 -18.0126
LeftUpLeg  -66.9557 1.88064 -5.86932
LeftLeg  69.982 -10.8754 9.55909
LeftFoot  -25.3616 0.208415 2.57658
LeftToes  1.69338e-011 3.79281e-011 -2.20049e-011
285
root  0.912114 31.9479 -45.2187 -157.878 2.28619 -177.574
RightUpLeg  -37.894 -4.53211 0.534534
RightLeg  74.3247 12.6885 -16.522
RightFoot  -19.9084 1.66629 26.3972
RightToes  -1.16415e-010 -3.18055e-015 -2.98177e-016
Spine  36.4909 -0.720558 2.59685
Spine1  -4.93284 -0.0351518 -12.4573
HEad  -18.4608 -5.62328 6.11012
LeftShoulder1  -3.88251e-019 9.70628e-020 -3.87848e-018
LeftArm  -26.845 40.1222 -42.4824
LeftForeArm  1.54646 -52.1083 15.1029
LeftHand  -7.06878 -11.5346 47.1063
RightShoulder  4.37158 8.86277 21.4997
RightArm  9.77729 -43.1612 22.1899
RightForeArm  -5.70029 47.9918 -29.8914
RightHand  -1.32357 2.55336 -18.9998
LeftUpLeg  -65.9682 1.75061 -5.25619
LeftLeg  68.688 -10.5377 9.94738
LeftFoot  -25.8409 0.152209 1.98773
LeftToes  1.69338e-011 3.79281e-011 -2.20049e-011
286
root  0.890564 32.2306 -45.6997 -157.563 2.65295 -177.229
RightUpLeg  -42.5596 -5.3192 1.09584
RightLeg  77.6653 13.2809 -19.8223
RightFoot  -6.79988 -1.11477 21.1673
RightToes  -1.16415e-010 -3.18055e-015 -2.98177e-016
Spine  36.5944 -0.668781 1.7972
Spine1  -5.40101 -0.238898 -11.8087
HEad  -18.1854 -5.05907 6.06068
LeftShoulder1  -3.88251e-019 9.70628e-020 -3.87848e-018
LeftArm  -26.2779 38.9599 -41.7625
LeftForeArm  1.34726 -51.3101 14.6307
LeftHand  -6.99235 -11.4592 46.8438
RightShoulder  4.42597 8.90544 21.7492
RightArm  11.8232 -44.5935 20.8801
RightForeArm  -9.58002 49.5301 -31.3895
RightHand  -1.34587 2.4066 -19.6625
LeftUpLeg  -64.5947 1.76651 -4.80703
LeftLeg  67.5719 -10.2137 10.3283
LeftFoot  -26.4402 0.0950834 1.42332
LeftToes  1.69338e-011 3.79281e-011 -2.20049e-011
287
root  0.898827 32.4114 -46.1671 -157.706 3.28349 -177.132
RightUpLeg  -47.7316 -6.66998 2.06823
RightLeg  80.7229 14.2004 -22.8581
RightFoot  2.20407 -1.59339 11.2381
RightToes  -1.16415e-010 -3.18055e-015 -2.98177e-016
Spine  36.9597 -0.600136 0.7118
Spine1  -5.4665 -0.313141 -11.4306
HEad  -17.9579 -4.34475 6.04019
LeftShoulder1  -3.88251e-019 9.70628e-020 -3.87848e-018
LeftArm  -25.5608 37.5618 -41.0955
LeftForeArm  0.543766 -50.2211 13.9819
LeftHand  -6.81942 -11.1484 46.5978
RightShoulder  4.56561 9.00086 22.4092
RightArm  14.4089 -45.7748 19.0027
RightForeArm  -13.6186 51.3124 -33.3284
RightHand  -1.37733 2.31374 -20.3432
LeftUpLeg  -62.999 2.16746 -4.77713
LeftLeg  66.9596 -10.0222 10.5551
LeftFoot  -27.2284 0.0421567 0.93357
LeftToes  1.69338e-011 3.79281e-011 -2.20049e-011
